<svg id="Layer_1" data-name="Layer 1" xmlns="http://www.w3.org/2000/svg" xmlns:xlink="http://www.w3.org/1999/xlink" viewBox="0 0 430.2 332.1"><defs><style>.cls-1{fill:none;}.cls-2{fill:#414141;}.cls-3{fill:#bd202b;}.cls-4{fill:#e85c50;}.cls-5{fill:#1f4963;}.cls-6{clip-path:url(#clip-path);}.cls-7{fill:#32b195;}.cls-8{fill:#fff;}</style><clipPath id="clip-path"><polygon class="cls-1" points="119.55 109.1 193.35 40.7 314.35 109.1 193.35 201.1 119.55 109.1"/></clipPath></defs><title>marca</title><path class="cls-2" d="M84.45,260.3a4.36,4.36,0,0,0-1-3,10,10,0,0,0-3.4-2.1,21.52,21.52,0,0,1-7.3-3.9,7.55,7.55,0,0,1-2.4-6,7.8,7.8,0,0,1,2.8-6.3,10.52,10.52,0,0,1,7.1-2.4,10.34,10.34,0,0,1,7.3,2.6,8.38,8.38,0,0,1,2.7,6.9v.1h-5.9a5.63,5.63,0,0,0-1.1-3.7,4.06,4.06,0,0,0-3.1-1.3,3.16,3.16,0,0,0-2.7,1.2,4.62,4.62,0,0,0-1,2.9,3.47,3.47,0,0,0,1.1,2.6,16.07,16.07,0,0,0,3.8,2.3,18.63,18.63,0,0,1,6.9,3.8,8.07,8.07,0,0,1,2.3,6.2,7.75,7.75,0,0,1-2.7,6.3,11,11,0,0,1-7.3,2.3,11.6,11.6,0,0,1-7.6-2.5c-2.1-1.7-3.1-4.2-3.1-7.6v-.1h5.9q0,3,1.2,4.2a4.46,4.46,0,0,0,3.5,1.3,3.69,3.69,0,0,0,2.9-1.1A3.1,3.1,0,0,0,84.45,260.3Z"/><path class="cls-2" d="M105.75,268.4c-.2-.5-.4-1.1-.6-1.7a5.82,5.82,0,0,1-.3-1.9,8.81,8.81,0,0,1-2,2.9,4.69,4.69,0,0,1-3.1,1.1,6.12,6.12,0,0,1-4.9-1.9,7.29,7.29,0,0,1-1.7-5.1,6.59,6.59,0,0,1,2.3-5.3c1.5-1.3,3.7-1.9,6.7-1.9h2.7v-1.9a4.91,4.91,0,0,0-.6-2.7,2.2,2.2,0,0,0-1.9-.9,2.14,2.14,0,0,0-1.7.8,3.4,3.4,0,0,0-.6,2.2h-5.9V252a6.14,6.14,0,0,1,2.3-5.1,9.22,9.22,0,0,1,6.3-2.1,8.61,8.61,0,0,1,6,2.1,7.83,7.83,0,0,1,2.3,6v9.6a30.28,30.28,0,0,0,.2,3.1,24.6,24.6,0,0,0,.7,2.9h-6.2Zm-4.5-4a3.6,3.6,0,0,0,2.2-.7,3.8,3.8,0,0,0,1.3-1.8v-3.7h-2.7a2.35,2.35,0,0,0-2.2,1,4.09,4.09,0,0,0-.7,2.5,3.17,3.17,0,0,0,.6,2A2,2,0,0,0,101.25,264.4Z"/><path class="cls-2" d="M126.85,265.1a8.06,8.06,0,0,1-2.3,2.8,5.09,5.09,0,0,1-3.2,1,5.6,5.6,0,0,1-4.9-2.5q-1.8-2.55-1.8-7.8V245.2h6.1v13.4a10.54,10.54,0,0,0,.6,4.3,2.06,2.06,0,0,0,1.9,1.2,4.06,4.06,0,0,0,1.9-.4,5.26,5.26,0,0,0,1.4-1.2V245.1h6.1v23.3h-5Zm-2.5-29.5h6.8l.1.1-5.4,5.6h-5.3Z"/><path class="cls-2" d="M135.65,256.9a17.77,17.77,0,0,1,2-8.9,6.6,6.6,0,0,1,5.8-3.4,4.3,4.3,0,0,1,2.5.7,6,6,0,0,1,2,1.9V234.8h6.1v33.6h-5.2l-.5-2.6a6.1,6.1,0,0,1-2.2,2.3,5.38,5.38,0,0,1-2.8.8,6.62,6.62,0,0,1-5.8-3.2c-1.4-2.1-2-4.9-2-8.4v-.4Zm6,.4a13.37,13.37,0,0,0,.8,5,2.67,2.67,0,0,0,2.6,1.8,3.74,3.74,0,0,0,1.8-.5,4.42,4.42,0,0,0,1.3-1.4V251.6a4.17,4.17,0,0,0-1.3-1.6,2.72,2.72,0,0,0-1.7-.6,2.82,2.82,0,0,0-2.6,2,16.19,16.19,0,0,0-.8,5.4v.5Z"/><path class="cls-2" d="M167.05,268.9a8.77,8.77,0,0,1-7.2-3.2,12.73,12.73,0,0,1-2.5-8.2v-.9a14.35,14.35,0,0,1,2.4-8.6,8,8,0,0,1,6.9-3.3,7.53,7.53,0,0,1,6.3,2.8c1.5,1.9,2.2,4.4,2.2,7.7v3.3h-11.8a8,8,0,0,0,1.2,4.1,3.57,3.57,0,0,0,3.2,1.5,8.72,8.72,0,0,0,3-.4,12.6,12.6,0,0,0,2.6-1.3l1.6,3.8a9.17,9.17,0,0,1-3.4,1.9A12.87,12.87,0,0,1,167.05,268.9Zm-.3-19.5a2.45,2.45,0,0,0-2.3,1.3,8.71,8.71,0,0,0-.9,3.7h5.8v-.5a7.48,7.48,0,0,0-.6-3.3A2.2,2.2,0,0,0,166.75,249.4Z"/><path class="cls-2" d="M214.45,268.4h-6.1V237h6.1Z"/><path class="cls-2" d="M224.75,245.1l.3,3.3a8,8,0,0,1,2.4-2.7,6,6,0,0,1,3.2-1,5.69,5.69,0,0,1,4.7,2.3c1.1,1.5,1.7,4,1.7,7.3v14.2H231V254.3a8,8,0,0,0-.6-3.7,2.14,2.14,0,0,0-1.9-1.1,3.45,3.45,0,0,0-1.8.5,5.71,5.71,0,0,0-1.4,1.3v17.2h-6.1V245.2h5.6Z"/><path class="cls-2" d="M240.15,256.5a13.72,13.72,0,0,1,2.5-8.6,8.38,8.38,0,0,1,7.1-3.3,8.51,8.51,0,0,1,7.1,3.3,13.72,13.72,0,0,1,2.5,8.6v.5c0,3.5-.8,6.4-2.5,8.5a8.32,8.32,0,0,1-7,3.3,8.51,8.51,0,0,1-7.1-3.3c-1.7-2.2-2.5-5-2.5-8.6v-.4Zm6.1.5a14.55,14.55,0,0,0,.8,5.2,2.75,2.75,0,0,0,2.7,1.9,2.84,2.84,0,0,0,2.7-1.9,14.55,14.55,0,0,0,.8-5.2v-.5a14.94,14.94,0,0,0-.8-5.2,2.84,2.84,0,0,0-2.7-2,2.76,2.76,0,0,0-2.7,2,14.55,14.55,0,0,0-.8,5.2Z"/><path class="cls-2" d="M269.85,259.8l.3,1.8h.1l.3-1.8,2.8-14.7h6.4l-6.6,23.3h-5.9l-6.7-23.3H267Z"/><path class="cls-2" d="M293.45,268.4c-.2-.5-.4-1.1-.6-1.7a5.82,5.82,0,0,1-.3-1.9,8.81,8.81,0,0,1-2,2.9,4.69,4.69,0,0,1-3.1,1.1,6.12,6.12,0,0,1-4.9-1.9,7.29,7.29,0,0,1-1.7-5.1,6.59,6.59,0,0,1,2.3-5.3c1.5-1.3,3.7-1.9,6.7-1.9h2.7v-1.9a4.91,4.91,0,0,0-.6-2.7,2.2,2.2,0,0,0-1.9-.9,2.14,2.14,0,0,0-1.7.8,3.4,3.4,0,0,0-.6,2.2h-5.9V252a6.14,6.14,0,0,1,2.3-5.1,9.22,9.22,0,0,1,6.3-2.1,8.61,8.61,0,0,1,6,2.1,7.83,7.83,0,0,1,2.3,6v9.6a30.28,30.28,0,0,0,.2,3.1,24.6,24.6,0,0,0,.7,2.9h-6.2Zm-4.4-4a3.6,3.6,0,0,0,2.2-.7,3.8,3.8,0,0,0,1.3-1.8v-3.7h-2.7a2.35,2.35,0,0,0-2.2,1,4.09,4.09,0,0,0-.7,2.5,3.17,3.17,0,0,0,.6,2A1.81,1.81,0,0,0,289.05,264.4Z"/><path class="cls-2" d="M311.05,264.1a2.22,2.22,0,0,0,2-1,5.1,5.1,0,0,0,.7-2.7h5.5l.1.1a8.06,8.06,0,0,1-2.3,6,7.84,7.84,0,0,1-5.9,2.3,8.2,8.2,0,0,1-7-3.3,14,14,0,0,1-2.4-8.5v-.6a14.24,14.24,0,0,1,2.4-8.5,8.2,8.2,0,0,1,7-3.3,7.83,7.83,0,0,1,6,2.4,9.15,9.15,0,0,1,2.2,6.5v.1h-5.5a5.7,5.7,0,0,0-.7-3.1,2.1,2.1,0,0,0-2-1.2,2.56,2.56,0,0,0-2.6,1.9,14.57,14.57,0,0,0-.7,5.1v.6a14.82,14.82,0,0,0,.7,5.2A2.31,2.31,0,0,0,311.05,264.1Zm2.3,4.2-.2,1.3a2.87,2.87,0,0,1,1.9,1.1,4,4,0,0,1,.8,2.6,4.52,4.52,0,0,1-1.7,3.7,8,8,0,0,1-5,1.4l-.1-3.4a1.66,1.66,0,0,0,1.2-.5,2,2,0,0,0,.4-1.4,1.49,1.49,0,0,0-.6-1.3,5.61,5.61,0,0,0-1.9-.5l.6-3Z"/><path class="cls-2" d="M334,268.4c-.2-.5-.4-1.1-.6-1.7a5.82,5.82,0,0,1-.3-1.9,8.81,8.81,0,0,1-2,2.9,4.69,4.69,0,0,1-3.1,1.1,6.12,6.12,0,0,1-4.9-1.9,7.29,7.29,0,0,1-1.7-5.1,6.59,6.59,0,0,1,2.3-5.3c1.5-1.3,3.7-1.9,6.7-1.9h2.7v-1.9a4.91,4.91,0,0,0-.6-2.7,2.2,2.2,0,0,0-1.9-.9,2.14,2.14,0,0,0-1.7.8,3.4,3.4,0,0,0-.6,2.2h-5.9V252a6.14,6.14,0,0,1,2.3-5.1,9.22,9.22,0,0,1,6.3-2.1,8.61,8.61,0,0,1,6,2.1,7.83,7.83,0,0,1,2.3,6v9.6a30.28,30.28,0,0,0,.2,3.1,24.6,24.6,0,0,0,.7,2.9H334Zm3.7-33a5.84,5.84,0,0,1-1.1,3.5,3.24,3.24,0,0,1-2.8,1.4,5.61,5.61,0,0,1-3-1,6.64,6.64,0,0,0-2.6-1,1,1,0,0,0-1,.7,3.06,3.06,0,0,0-.4,1.7l-3.2-.9a5.54,5.54,0,0,1,1.1-3.4,3.34,3.34,0,0,1,2.8-1.5,5.91,5.91,0,0,1,2.8,1,7.29,7.29,0,0,0,2.8,1,1,1,0,0,0,1-.7,3.06,3.06,0,0,0,.4-1.7Zm-8.2,29a3.6,3.6,0,0,0,2.2-.7,3.8,3.8,0,0,0,1.3-1.8v-3.7h-2.7a2.35,2.35,0,0,0-2.2,1,4.09,4.09,0,0,0-.7,2.5,3.17,3.17,0,0,0,.6,2A2.13,2.13,0,0,0,329.45,264.4Z"/><path class="cls-2" d="M342.15,256.5a13.72,13.72,0,0,1,2.5-8.6,8.38,8.38,0,0,1,7.1-3.3,8.51,8.51,0,0,1,7.1,3.3,13.72,13.72,0,0,1,2.5,8.6v.5c0,3.5-.8,6.4-2.5,8.5a8.32,8.32,0,0,1-7,3.3,8.51,8.51,0,0,1-7.1-3.3c-1.7-2.2-2.5-5-2.5-8.6v-.4Zm6.1.5a14.55,14.55,0,0,0,.8,5.2,2.75,2.75,0,0,0,2.7,1.9,2.84,2.84,0,0,0,2.7-1.9,14.55,14.55,0,0,0,.8-5.2v-.5a14.94,14.94,0,0,0-.8-5.2,2.84,2.84,0,0,0-2.7-2,2.76,2.76,0,0,0-2.7,2,14.55,14.55,0,0,0-.8,5.2Z"/><path class="cls-2" d="M44.15,294.8h-7.4v26.6h-6.1V294.8h-7.2V290h20.6v4.8Z"/><path class="cls-2" d="M53.55,321.8a8.77,8.77,0,0,1-7.2-3.2,12.73,12.73,0,0,1-2.5-8.2v-.9a14.35,14.35,0,0,1,2.4-8.6,8,8,0,0,1,6.9-3.3,7.53,7.53,0,0,1,6.3,2.8c1.5,1.9,2.2,4.4,2.2,7.7v3.3H49.85a8,8,0,0,0,1.2,4.1,3.57,3.57,0,0,0,3.2,1.5,8.72,8.72,0,0,0,3-.4,12.6,12.6,0,0,0,2.6-1.3l1.6,3.8a9.17,9.17,0,0,1-3.4,1.9A11.24,11.24,0,0,1,53.55,321.8Zm-.4-19.4a2.45,2.45,0,0,0-2.3,1.3,8.71,8.71,0,0,0-.9,3.7h5.8v-.5a7.48,7.48,0,0,0-.6-3.3A2.1,2.1,0,0,0,53.15,302.4Z"/><path class="cls-2" d="M73.35,317.1a2.22,2.22,0,0,0,2-1,5.1,5.1,0,0,0,.7-2.7h5.5l.1.1a8.06,8.06,0,0,1-2.3,6,7.84,7.84,0,0,1-5.9,2.3,8.2,8.2,0,0,1-7-3.3,14,14,0,0,1-2.4-8.5v-.6a14.24,14.24,0,0,1,2.4-8.5,8.2,8.2,0,0,1,7-3.3,7.83,7.83,0,0,1,6,2.4,9.15,9.15,0,0,1,2.2,6.5v.1h-5.5a5.7,5.7,0,0,0-.7-3.1,2.1,2.1,0,0,0-2-1.2,2.56,2.56,0,0,0-2.6,1.9,14.57,14.57,0,0,0-.7,5.1v.6a14.82,14.82,0,0,0,.7,5.2A2.44,2.44,0,0,0,73.35,317.1Z"/><path class="cls-2" d="M90.25,298.1l.3,3.3a8,8,0,0,1,2.4-2.7,6,6,0,0,1,3.2-1,5.69,5.69,0,0,1,4.7,2.3c1.1,1.5,1.7,4,1.7,7.3v14.2h-6.1V307.3a8,8,0,0,0-.6-3.7,2.14,2.14,0,0,0-1.9-1.1,3.45,3.45,0,0,0-1.8.5,5.71,5.71,0,0,0-1.4,1.3v17.2h-6.1V298.2h5.6Z"/><path class="cls-2" d="M105.65,309.5a13.72,13.72,0,0,1,2.5-8.6,8.38,8.38,0,0,1,7.1-3.3,8.51,8.51,0,0,1,7.1,3.3,13.72,13.72,0,0,1,2.5,8.6v.5c0,3.5-.8,6.4-2.5,8.5a8.32,8.32,0,0,1-7,3.3,8.51,8.51,0,0,1-7.1-3.3c-1.7-2.2-2.5-5-2.5-8.6v-.4Zm6,.5a14.55,14.55,0,0,0,.8,5.2,2.75,2.75,0,0,0,2.7,1.9,2.84,2.84,0,0,0,2.7-1.9,14.55,14.55,0,0,0,.8-5.2v-.5a14.94,14.94,0,0,0-.8-5.2,2.84,2.84,0,0,0-2.7-2,2.76,2.76,0,0,0-2.7,2,14.55,14.55,0,0,0-.8,5.2Z"/><path class="cls-2" d="M134.45,321.4h-6.1V287.8h6.1Z"/><path class="cls-2" d="M138.05,309.5a13.72,13.72,0,0,1,2.5-8.6,8.38,8.38,0,0,1,7.1-3.3,8.51,8.51,0,0,1,7.1,3.3,13.72,13.72,0,0,1,2.5,8.6v.5c0,3.5-.8,6.4-2.5,8.5a8.32,8.32,0,0,1-7,3.3,8.51,8.51,0,0,1-7.1-3.3c-1.7-2.2-2.5-5-2.5-8.6v-.4Zm6.1.5a14.55,14.55,0,0,0,.8,5.2,2.75,2.75,0,0,0,2.7,1.9,2.84,2.84,0,0,0,2.7-1.9,14.55,14.55,0,0,0,.8-5.2v-.5a14.94,14.94,0,0,0-.8-5.2,2.84,2.84,0,0,0-2.7-2,2.76,2.76,0,0,0-2.7,2,14.55,14.55,0,0,0-.8,5.2Z"/><path class="cls-2" d="M159.75,309.9a17.77,17.77,0,0,1,2-8.9,6.6,6.6,0,0,1,5.8-3.4,5.12,5.12,0,0,1,2.8.8,6.74,6.74,0,0,1,2.1,2.3l.4-2.7h5.3v23.2c0,3-.9,5.4-2.7,7s-4.2,2.5-7.4,2.5a13.93,13.93,0,0,1-3.3-.5,12.66,12.66,0,0,1-3.2-1.3l1-4.6a9.28,9.28,0,0,0,2.6,1,12.65,12.65,0,0,0,2.8.3,3.92,3.92,0,0,0,3-1.1,4.89,4.89,0,0,0,1-3.5v-1.7a6.27,6.27,0,0,1-2,1.7,5.54,5.54,0,0,1-2.6.6,6.62,6.62,0,0,1-5.8-3.2c-1.4-2.1-2-4.9-2-8.4v-.1Zm6.1.4a13.37,13.37,0,0,0,.8,5,2.67,2.67,0,0,0,2.6,1.8,3.42,3.42,0,0,0,1.8-.4,3,3,0,0,0,1.2-1.3v-11a3.33,3.33,0,0,0-1.2-1.4,3.37,3.37,0,0,0-1.7-.5,2.82,2.82,0,0,0-2.6,2,16.19,16.19,0,0,0-.8,5.4v.4Z"/><path class="cls-2" d="M188.65,292.4h-6.1v-4.6h6.1Zm0,29h-6.1V298.1h6.1Z"/><path class="cls-2" d="M204.65,321.4c-.2-.5-.4-1.1-.6-1.7a5.82,5.82,0,0,1-.3-1.9,8.81,8.81,0,0,1-2,2.9,4.69,4.69,0,0,1-3.1,1.1,6.12,6.12,0,0,1-4.9-1.9,7.29,7.29,0,0,1-1.7-5.1,6.59,6.59,0,0,1,2.3-5.3c1.5-1.3,3.7-1.9,6.7-1.9h2.7v-1.9a4.91,4.91,0,0,0-.6-2.7,2.2,2.2,0,0,0-1.9-.9,2.14,2.14,0,0,0-1.7.8,3.4,3.4,0,0,0-.6,2.2h-5.9V305a6.14,6.14,0,0,1,2.3-5.1,9.22,9.22,0,0,1,6.3-2.1,8.61,8.61,0,0,1,6,2.1,7.83,7.83,0,0,1,2.3,6v9.6a30.28,30.28,0,0,0,.2,3.1,24.6,24.6,0,0,0,.7,2.9h-6.2Zm-4.5-4.1a3.6,3.6,0,0,0,2.2-.7,3.24,3.24,0,0,0,1.3-1.8v-3.7H201a2.35,2.35,0,0,0-2.2,1,4.09,4.09,0,0,0-.7,2.5,3.17,3.17,0,0,0,.6,2A1.58,1.58,0,0,0,200.15,317.3Z"/><path class="cls-2" d="M259,307.5h-9.6v9.1h11.5v4.7h-17.6V289.9h17.5v4.8h-11.4v8H259Z"/><path class="cls-2" d="M263.05,309.9a17.77,17.77,0,0,1,2-8.9,6.6,6.6,0,0,1,5.8-3.4,4.3,4.3,0,0,1,2.5.7,6,6,0,0,1,2,1.9V287.8h6.1v33.6h-5.2l-.5-2.6a6.1,6.1,0,0,1-2.2,2.3,5.38,5.38,0,0,1-2.8.8,6.62,6.62,0,0,1-5.8-3.2c-1.4-2.1-2-4.9-2-8.4v-.4Zm6.1.4a13.37,13.37,0,0,0,.8,5,2.67,2.67,0,0,0,2.6,1.8,3.74,3.74,0,0,0,1.8-.5,4.42,4.42,0,0,0,1.3-1.4V304.5a4.17,4.17,0,0,0-1.3-1.6,2.72,2.72,0,0,0-1.7-.6,2.82,2.82,0,0,0-2.6,2,16.19,16.19,0,0,0-.8,5.4v.6Z"/><path class="cls-2" d="M297.75,318.1a8.06,8.06,0,0,1-2.3,2.8,5.09,5.09,0,0,1-3.2,1,5.6,5.6,0,0,1-4.9-2.5q-1.8-2.55-1.8-7.8V298.2h6.1v13.4a10.54,10.54,0,0,0,.6,4.3,2.06,2.06,0,0,0,1.9,1.2,4.06,4.06,0,0,0,1.9-.4,5.26,5.26,0,0,0,1.4-1.2V298.1h6.1v23.3h-5Z"/><path class="cls-2" d="M316,317.1a2.22,2.22,0,0,0,2-1,5.1,5.1,0,0,0,.7-2.7h5.5l.1.1a8.06,8.06,0,0,1-2.3,6,7.84,7.84,0,0,1-5.9,2.3,8.2,8.2,0,0,1-7-3.3,14,14,0,0,1-2.4-8.5v-.6a14.24,14.24,0,0,1,2.4-8.5,8.2,8.2,0,0,1,7-3.3,7.83,7.83,0,0,1,6,2.4,9.15,9.15,0,0,1,2.2,6.5v.1h-5.5a5.7,5.7,0,0,0-.7-3.1,2.1,2.1,0,0,0-2-1.2,2.56,2.56,0,0,0-2.6,1.9,14.57,14.57,0,0,0-.7,5.1v.6a14.82,14.82,0,0,0,.7,5.2A2.31,2.31,0,0,0,316,317.1Z"/><path class="cls-2" d="M338.85,321.4c-.2-.5-.4-1.1-.6-1.7a5.82,5.82,0,0,1-.3-1.9,8.81,8.81,0,0,1-2,2.9,4.69,4.69,0,0,1-3.1,1.1,6.12,6.12,0,0,1-4.9-1.9,7.29,7.29,0,0,1-1.7-5.1,6.59,6.59,0,0,1,2.3-5.3c1.5-1.3,3.7-1.9,6.7-1.9H338v-1.9a4.91,4.91,0,0,0-.6-2.7,2.2,2.2,0,0,0-1.9-.9,2.14,2.14,0,0,0-1.7.8,3.4,3.4,0,0,0-.6,2.2h-5.9V305a6.14,6.14,0,0,1,2.3-5.1,9.22,9.22,0,0,1,6.3-2.1,8.61,8.61,0,0,1,6,2.1,7.83,7.83,0,0,1,2.3,6v9.6a30.28,30.28,0,0,0,.2,3.1,24.6,24.6,0,0,0,.7,2.9h-6.2Zm-4.5-4.1a3.6,3.6,0,0,0,2.2-.7,3.24,3.24,0,0,0,1.3-1.8v-3.7h-2.7a2.35,2.35,0,0,0-2.2,1,4.09,4.09,0,0,0-.7,2.5,3.17,3.17,0,0,0,.6,2A1.68,1.68,0,0,0,334.35,317.3Z"/><path class="cls-2" d="M356.35,317.1a2.22,2.22,0,0,0,2-1,5.1,5.1,0,0,0,.7-2.7h5.5l.1.1a8.06,8.06,0,0,1-2.3,6,7.84,7.84,0,0,1-5.9,2.3,8.2,8.2,0,0,1-7-3.3,14,14,0,0,1-2.4-8.5v-.6a14.24,14.24,0,0,1,2.4-8.5,8.2,8.2,0,0,1,7-3.3,7.83,7.83,0,0,1,6,2.4,9.15,9.15,0,0,1,2.2,6.5v.1h-5.5a5.7,5.7,0,0,0-.7-3.1,2.1,2.1,0,0,0-2-1.2,2.56,2.56,0,0,0-2.6,1.9,14.57,14.57,0,0,0-.7,5.1v.6a14.82,14.82,0,0,0,.7,5.2A2.44,2.44,0,0,0,356.35,317.1Zm2.3,4.2-.2,1.3a2.87,2.87,0,0,1,1.9,1.1,4,4,0,0,1,.8,2.6,4.52,4.52,0,0,1-1.7,3.7,8,8,0,0,1-5,1.4l-.1-3.4a1.66,1.66,0,0,0,1.2-.5,2,2,0,0,0,.4-1.4,1.49,1.49,0,0,0-.6-1.3,5.61,5.61,0,0,0-1.9-.5l.6-3Z"/><path class="cls-2" d="M379.25,321.4c-.2-.5-.4-1.1-.6-1.7a5.82,5.82,0,0,1-.3-1.9,8.81,8.81,0,0,1-2,2.9,4.69,4.69,0,0,1-3.1,1.1,6.12,6.12,0,0,1-4.9-1.9,7.29,7.29,0,0,1-1.7-5.1,6.59,6.59,0,0,1,2.3-5.3c1.5-1.3,3.7-1.9,6.7-1.9h2.7v-1.9a4.91,4.91,0,0,0-.6-2.7,2.2,2.2,0,0,0-1.9-.9,2.14,2.14,0,0,0-1.7.8,3.4,3.4,0,0,0-.6,2.2h-5.9V305a6.14,6.14,0,0,1,2.3-5.1,9.22,9.22,0,0,1,6.3-2.1,8.61,8.61,0,0,1,6,2.1,7.83,7.83,0,0,1,2.3,6v9.6a30.28,30.28,0,0,0,.2,3.1,24.6,24.6,0,0,0,.7,2.9h-6.2Zm3.8-33a5.84,5.84,0,0,1-1.1,3.5,3.24,3.24,0,0,1-2.8,1.4,5.61,5.61,0,0,1-3-1,6.64,6.64,0,0,0-2.6-1,1,1,0,0,0-1,.7,3.06,3.06,0,0,0-.4,1.7l-3.2-.9a5.54,5.54,0,0,1,1.1-3.4,3.34,3.34,0,0,1,2.8-1.5,5.91,5.91,0,0,1,2.8,1,7.29,7.29,0,0,0,2.8,1,1,1,0,0,0,1-.7,3.06,3.06,0,0,0,.4-1.7Zm-8.2,28.9a3.6,3.6,0,0,0,2.2-.7,3.24,3.24,0,0,0,1.3-1.8v-3.7h-2.7a2.35,2.35,0,0,0-2.2,1,4.09,4.09,0,0,0-.7,2.5,3.17,3.17,0,0,0,.6,2A1.58,1.58,0,0,0,374.85,317.3Z"/><path class="cls-2" d="M387.55,309.5a13.72,13.72,0,0,1,2.5-8.6,8.38,8.38,0,0,1,7.1-3.3,8.51,8.51,0,0,1,7.1,3.3,13.72,13.72,0,0,1,2.5,8.6v.5c0,3.5-.8,6.4-2.5,8.5a8.32,8.32,0,0,1-7,3.3,8.51,8.51,0,0,1-7.1-3.3c-1.7-2.2-2.5-5-2.5-8.6v-.4Zm6,.5a14.55,14.55,0,0,0,.8,5.2,2.75,2.75,0,0,0,2.7,1.9,2.84,2.84,0,0,0,2.7-1.9,14.55,14.55,0,0,0,.8-5.2v-.5a14.94,14.94,0,0,0-.8-5.2,2.84,2.84,0,0,0-2.7-2,2.76,2.76,0,0,0-2.7,2,14.55,14.55,0,0,0-.8,5.2Z"/><polygon class="cls-3" points="124.85 115.7 102.05 106.7 193.35 15.9 193.35 40.7 119.55 109.1 124.85 115.7"/><polygon class="cls-4" points="280.55 90 193.35 40.7 193.35 0.7 280.55 90"/><polygon class="cls-5" points="281.95 90.8 332.45 103.2 193.35 224.6 193.35 201.1 314.35 109.1 281.95 90.8"/><g class="cls-6"><polygon class="cls-7" points="119.55 109.1 193.35 40.7 314.35 109.1 193.35 201.1 119.55 109.1"/></g><g class="cls-6"><path class="cls-8" d="M168.15,125.6a10.87,10.87,0,0,0-3.4-4.6c-2.4-2-5.5-3-8.3-3.9-3.3-1.1-6.1-2-6.1-4.3,0-1.5,1-3.3,5.5-3.3a18.08,18.08,0,0,1,9.2,2l.2-9.9c-3.9-1.7-7-2-11.5-2-10.6,0-16.6,4.7-16.6,12.9a11,11,0,0,0,4.2,9.2c2.5,1.9,5.6,2.9,8.3,3.8,3.4,1.1,6,1.9,6,4.1,0,3.2-4.5,3.2-6,3.2a38.56,38.56,0,0,1-14.5-3.4l2.3,11.1c3.8,1.9,8.5,2.8,15.1,2.9h.3c4.4,0,8.4-1.1,11.1-3.1a10.57,10.57,0,0,0,3.9-5c.1-.2.1-.3.2-.5a2,2,0,0,1,.2-.6v.1A14.16,14.16,0,0,0,168.15,125.6Z"/><path class="cls-8" d="M207.75,133.5h-.6c-2.5,0-3-1.8-3-3.3V116.9c0-12-5.8-17.4-18.7-17.4a36.55,36.55,0,0,0-12.4,1.8v10.6a29.26,29.26,0,0,1,10.9-1.7c4.8,0,7.2,1.9,7.2,5.8v2.7l-.8-.2a22,22,0,0,0-6.2-.8c-4.6,0-8.4,1.1-11.1,3.3a10.58,10.58,0,0,0-3.4,4.7c-.1.2-.1.3-.2.5s-.1.4-.2.6a15.18,15.18,0,0,0-.5,3.8,13.42,13.42,0,0,0,.4,3.5c0,.2.1.4.1.6a.76.76,0,0,0,.2.5,10.56,10.56,0,0,0,3.2,5,13.73,13.73,0,0,0,9.1,3.1,16.76,16.76,0,0,0,10.9-3.5l.5-.4.4.4c1.7,1.9,4.6,2.9,8,2.9a25.05,25.05,0,0,0,5.5-.6c.1,0-2.2.4-2.1.4s2.6.9,2.7-.6c0,0,.1.7.2.7v-9.2C207.85,133.5,207.85,133.5,207.75,133.5Zm-16.6.1-.2.2a6.73,6.73,0,0,1-4.9,1.8c-2.9,0-4.6-1.9-4.6-5.2,0-3.7,2-5.5,6-5.5a12.57,12.57,0,0,1,3.3.5l.5.1v8.1Z"/><path class="cls-8" d="M214.55,81.1a8,8,0,0,0-5.3,1.7,7.09,7.09,0,0,0-2.3,5.6,7.3,7.3,0,0,0,2.3,5.7,7.74,7.74,0,0,0,5.3,1.8c3.6,0,7.5-2,7.5-7.5C222.05,83.9,219.25,81.1,214.55,81.1ZM208,100.9v33.8h-.3v8.8c.1,0,.2-.1.3-.1v.1h13.3V100.9Z"/><path class="cls-8" d="M222.75,100.9v11.2h.1l-.1-11.2Z"/><path class="cls-8" d="M241.05,100.9h7.4l-2,11.2H241v14.7a5.73,5.73,0,0,0,1.3,4.2,4.36,4.36,0,0,0,2.9,1.1h1.6c.2,0,1.6-.2,1.6-.4l.2,10.5c-2.2.9-3.7,1.1-7.2,1.1a15.67,15.67,0,0,1-9-2.7c-3.1-2.4-4.7-6.1-4.7-11.2V112h-5.3V100.8h5.3v-10L241,87.7v13.2Z"/><path class="cls-8" d="M279.45,104.7c-3-3.3-7.3-5-12.3-5-5.8,0-10.7,2-13.9,5.8a18.35,18.35,0,0,0-3.5,6.3c0,.1-.1.2-.1.4v.1c-.1.2-.1.3-.2.5a30.21,30.21,0,0,0-1.2,8.8c0,13.9,8,21.9,21.9,21.9a31.92,31.92,0,0,0,12.3-2.1l3.2-10.1c-3.2,1.1-9.5,2.8-13.3,2.8-5.8,0-9.1-2.3-10.3-7.1l-.2-.8H285C285.65,116.6,283.75,109.2,279.45,104.7Zm-18.1,13.9.1-.7c.4-5.4,2.5-8.1,6.1-8.1,5.2,0,5.3,6.1,5.3,8.2v.6Z"/><rect class="cls-8" x="221.15" y="100.9" width="2.4" height="11.2"/><path class="cls-8" d="M208.85,142.5l-.9.3s-2.4,1.2-7.6.7l4.2-4Z"/><path class="cls-8" d="M192.15,137.8l1.1,1.7s2.5,5.5,14.8,4l4-3.5-17.4-3.1Z"/></g><polygon class="cls-5" points="281.95 90.8 332.45 103.2 193.35 224.6 193.35 201.1 314.35 109.1 281.95 90.8"/><circle class="cls-2" cx="191.55" cy="255.5" r="6.3"/><circle class="cls-2" cx="225.35" cy="308.5" r="6.3"/></svg>